<svg width="188" height="190" viewBox="0 0 188 190" fill="none" xmlns="http://www.w3.org/2000/svg">
<g style="mix-blend-mode:luminosity">
<path d="M188 95C188 147.467 145.915 190 94 190C42.0852 190 0 147.467 0 95C0 42.5329 42.0852 0 94 0C145.915 0 188 42.5329 188 95Z" fill="white" fill-opacity="0.77"/>
</g>
<path d="M50.8757 99.2514V123.773C50.8757 123.773 74.1429 113.977 94.7726 113.977C115.402 113.977 138.674 123.773 138.674 123.773V98.9089C138.674 98.9089 116.477 87.0441 94.4291 87.0441C72.3911 87.0343 50.8757 99.2514 50.8757 99.2514Z" fill="#405952"/>
<path d="M163.32 90.2451L172.05 85.5011L163.32 80.6152V78.2971C163.32 78.2971 165.778 65.6985 151.808 72.2863C151.097 72.6777 150.714 73.0738 150.559 73.4601L92.9433 41.1666L17.2333 84.9581L45.8236 98.0849V93.8251C45.8236 93.8251 69.8118 80.2142 94.4 80.2142C118.983 80.2142 143.726 93.4435 143.726 93.4435V100.882L159.512 92.3138C159.512 102.237 159.512 123.463 159.512 127.004H154.257V139.333L161.244 134.452L169.001 139.333V126.999H163.32V90.2451ZM159.507 76.155C159.507 76.4533 159.507 77.2749 159.507 78.478L154.9 75.8956C156.579 74.7708 159.507 73.2106 159.507 76.155ZM157.948 89.7609C155.912 89.7609 154.252 88.0931 154.252 86.0342C154.252 83.9752 155.912 82.3026 157.948 82.3026C159.991 82.3026 161.641 83.9752 161.641 86.0342C161.641 88.0931 159.991 89.7609 157.948 89.7609Z" fill="url(#paint0_linear)"/>
<path d="M62.6667 142.5H54.7721V129.196H62.3637V131.636H57.7372V134.596H62.0425V137.026H57.7372V140.069H62.6667V142.5ZM74.8022 138.455H69.7809V136.405H74.8022V138.455ZM92.2436 142.5H81.6411V140.774L88.3882 131.636H82.1277V129.196H92.2253V130.875L85.6251 140.069H92.2436V142.5ZM107.28 142.5H99.3854V129.196H106.977V131.636H102.351V134.596H106.656V137.026H102.351V140.069H107.28V142.5ZM122.482 142.5H114.587V129.196H122.179V131.636H117.552V134.596H121.857V137.026H117.552V140.069H122.482V142.5ZM139.712 129.196L135.425 137.768V142.5H132.46V137.824L128.283 129.196H131.67L133.791 134.16C133.828 134.252 133.929 134.614 134.094 135.245H134.131C134.21 134.8 134.305 134.45 134.415 134.197L136.572 129.196H139.712Z" fill="#010101" fill-opacity="0.67"/>
<path d="M45.2392 133.277C45.0346 132.865 44.514 132.357 43.1945 132.28C42.8995 132.263 42.6462 132.47 42.6277 132.743C42.6092 133.016 42.8331 133.251 43.1276 133.268C43.7369 133.303 44.1526 133.457 44.268 133.69C44.3338 133.822 44.3684 133.914 44.3641 134.02C44.3507 134.331 44.0457 134.827 43.4562 135.497C42.6689 134.83 41.6968 134.202 40.6064 133.66C39.5215 133.121 38.4496 132.776 37.6138 132.535C37.6551 132.431 37.6985 132.331 37.7438 132.234C38.1544 131.35 38.6811 130.823 39.1529 130.823C39.5437 130.823 39.8867 131.177 40.1057 131.473C40.2722 131.699 40.6048 131.757 40.8485 131.603C41.0922 131.448 41.1547 131.141 40.9882 130.915C40.3283 130.021 39.626 129.833 39.1529 129.833C38.2133 129.833 37.3642 130.547 36.762 131.843C36.6929 131.991 36.6277 132.146 36.5668 132.306C35.5583 132.164 34.7659 132.262 34.7234 132.267C34.72 132.268 34.7164 132.268 34.7129 132.269C33.751 132.411 33.3189 132.838 33.1257 133.171C32.9971 133.393 32.9302 133.633 32.9268 133.884C32.9218 134.239 33.0394 134.634 33.2763 135.058C33.4118 135.301 33.7342 135.396 33.9965 135.27C34.2587 135.145 34.3614 134.846 34.2258 134.603C34.0726 134.329 33.9929 134.085 33.9955 133.897C33.9968 133.805 34.0203 133.72 34.0675 133.639C34.2092 133.395 34.5829 133.291 34.8743 133.247C34.9301 133.241 35.5155 133.178 36.2647 133.266C36.0394 134.152 35.9196 135.142 35.9196 136.167C35.9196 137.223 36.0999 138.207 36.2885 139.005C36.1779 139.019 36.0689 139.031 35.962 139.041C34.9609 139.128 34.2175 138.965 34.0222 138.614C33.9872 138.552 33.9699 138.47 33.9689 138.364C33.9677 138.224 33.9984 138.077 34.0602 137.926C34.1655 137.671 34.0274 137.385 33.7515 137.288C33.4757 137.19 33.1669 137.318 33.0617 137.574C32.952 137.839 32.8976 138.108 32.9 138.373C32.9025 138.637 32.9589 138.865 33.0725 139.068C33.4315 139.712 34.2655 140.054 35.4507 140.054C35.6452 140.054 35.8494 140.045 36.0623 140.026C36.2243 140.012 36.39 139.992 36.5589 139.968C36.8759 140.851 37.3031 141.404 37.3637 141.48C38.0115 142.323 38.6941 142.5 39.1529 142.5C39.626 142.5 40.3283 142.312 40.9882 141.419C41.1547 141.193 41.0922 140.885 40.8485 140.731C40.6048 140.577 40.2722 140.635 40.1057 140.86C39.8867 141.157 39.5437 141.51 39.1529 141.51C38.7765 141.51 38.4444 141.18 38.232 140.903C38.2287 140.898 38.2254 140.894 38.2219 140.89C38.2179 140.885 37.8824 140.469 37.6117 139.761C38.5608 139.529 39.5691 139.164 40.5605 138.69C41.6114 138.188 42.584 137.588 43.3731 136.956C43.397 136.937 43.4179 136.916 43.4372 136.895C43.9837 137.485 44.289 138.038 44.2834 138.436C44.2817 138.564 44.2677 138.643 44.2384 138.694C44.0954 138.941 43.7167 139.044 43.4242 139.087C43.1328 139.13 42.9342 139.384 42.9807 139.654C43.0227 139.897 43.2498 140.071 43.5079 140.071C43.5358 140.071 43.5643 140.069 43.5928 140.065C44.5547 139.922 44.987 139.495 45.1801 139.162C45.3274 138.908 45.3495 138.648 45.3523 138.449C45.3614 137.785 44.9672 137.014 44.2091 136.208C45.0369 135.284 45.4078 134.626 45.4321 134.059C45.4457 133.74 45.3475 133.495 45.2392 133.277ZM37.7692 133.621C37.7596 133.625 37.7499 133.63 37.7403 133.634C37.5614 133.72 37.3846 133.809 37.2105 133.9C37.2398 133.758 37.2721 133.619 37.3069 133.483C37.454 133.525 37.6086 133.571 37.7692 133.621ZM37.2537 138.443C37.4007 138.522 37.5492 138.599 37.6995 138.673C37.7156 138.681 37.7317 138.689 37.7479 138.697C37.6091 138.736 37.4717 138.773 37.3357 138.806C37.308 138.689 37.2805 138.568 37.2537 138.443ZM40.0701 137.811C39.7566 137.961 39.4422 138.099 39.1297 138.224C38.8206 138.095 38.5099 137.953 38.205 137.801C37.8032 137.602 37.4129 137.386 37.0438 137.161C37.0093 136.839 36.9885 136.506 36.9885 136.167C36.9885 135.823 37.0029 135.485 37.0308 135.154C37.4123 134.928 37.8152 134.712 38.2309 134.514C38.5353 134.368 38.845 134.232 39.1535 134.108C39.4649 134.234 39.783 134.374 40.1008 134.532C40.495 134.728 40.8759 134.938 41.2371 135.159C41.2666 135.481 41.2906 135.82 41.2906 136.167C41.2906 136.519 41.2658 136.864 41.2357 137.191C40.8648 137.409 40.4742 137.618 40.0701 137.811ZM42.3545 136.453C42.3575 136.359 42.3595 136.263 42.3595 136.167C42.3595 136.085 42.3579 136.004 42.3557 135.923C42.4723 136.013 42.585 136.103 42.6935 136.194C42.6869 136.198 42.6802 136.203 42.6739 136.208C42.571 136.29 42.4642 136.372 42.3545 136.453ZM41.3174 132.233C41.6125 132.233 41.8518 132.455 41.8518 132.728C41.8518 133.001 41.6125 133.223 41.3174 133.223C41.0222 133.223 40.7828 133.001 40.7828 132.728C40.7828 132.455 41.0222 132.233 41.3174 132.233ZM34.0758 136.34C34.0758 136.067 34.315 135.845 34.6101 135.845C34.9053 135.845 35.1445 136.067 35.1445 136.34C35.1445 136.613 34.9053 136.835 34.6101 136.835C34.315 136.835 34.0758 136.613 34.0758 136.34ZM41.9586 139.556C41.9586 139.829 41.7194 140.051 41.4242 140.051C41.129 140.051 40.8898 139.829 40.8898 139.556C40.8898 139.283 41.129 139.061 41.4242 139.061C41.7194 139.061 41.9586 139.283 41.9586 139.556Z" fill="#010101" fill-opacity="0.67"/>
<defs>
<linearGradient id="paint0_linear" x1="94.6419" y1="41.1666" x2="94.6419" y2="139.333" gradientUnits="userSpaceOnUse">
<stop stop-color="#81D1BB"/>
<stop offset="1" stop-color="#0D1410"/>
</linearGradient>
</defs>
</svg>
